<svg width="24" height="24" xmlns="http://www.w3.org/2000/svg">

 <g>
  <title>background</title>
  <rect fill="none" id="canvas_background" height="602" width="802" y="-1" x="-1"/>
 </g>
 <g>
  <title>Layer 1</title>
  <path fill="#fcc400" id="svg_1" d="m2.43,15.67l13.688,-13.698c0.141,-0.142 0.332,-0.222 0.531,-0.222l0.001,0c0.199,0 0.39,0.079 0.53,0.22l4.85,4.85c0.141,0.141 0.22,0.332 0.22,0.53c0,0.199 -0.079,0.39 -0.22,0.531l-13.7,13.69l-5.9,-5.901z"/>
  <path fill="#fcc400" id="svg_2" d="m22.568,5.943l0.493,-0.493c0.605,-0.606 0.939,-1.405 0.939,-2.25c0,-0.864 -0.336,-1.668 -0.937,-2.258c-1.202,-1.214 -3.315,-1.213 -4.514,-0.002l-0.493,0.493l4.512,4.51z"/>
  <path fill="#fcc400" id="svg_3" d="m2.024,16.678l-1.99,6.348c-0.083,0.266 -0.012,0.557 0.186,0.754c0.142,0.143 0.334,0.22 0.53,0.22c0.075,0 0.15,-0.011 0.225,-0.034l6.347,-1.99l-5.298,-5.298z"/>
  <path fill="#fcc400" id="svg_4" d="m6.97,8.788c0.192,0 0.384,-0.073 0.53,-0.22l4.842,-4.842c0.259,-0.258 0.605,-0.36 0.944,-0.335l1.184,-1.185c-1.024,-0.548 -2.326,-0.403 -3.189,0.459l-4.842,4.842c-0.293,0.293 -0.293,0.768 0,1.061c0.147,0.146 0.338,0.22 0.531,0.22z"/>
 </g>
</svg>