<svg 
 xmlns="http://www.w3.org/2000/svg"
 xmlns:xlink="http://www.w3.org/1999/xlink"
 width="808px" height="133px">
<path fill-rule="evenodd"  stroke="rgb(92, 178, 50)" stroke-width="0px" stroke-linecap="butt" stroke-linejoin="miter" fill="rgb(255, 230, 62)"
 d="M772.740,132.174 L772.740,32.214 L772.740,31.479 L771.270,31.479 C771.270,31.479 740.995,65.468 733.785,80.724 L733.785,132.174 L699.240,132.174 L699.240,1.344 L699.240,0.609 L733.785,0.609 L733.785,27.069 L735.255,27.069 C735.255,27.069 764.232,1.887 772.005,0.609 L807.285,0.609 L807.285,132.174 L772.740,132.174 ZM651.465,132.174 C651.465,132.174 643.989,81.439 629.415,60.144 C629.415,60.144 622.690,60.281 622.065,63.084 L622.065,132.909 L588.255,132.909 L587.520,132.909 L587.520,63.084 C587.520,63.084 581.929,59.026 580.170,60.879 C580.170,60.879 561.477,100.485 558.120,132.174 L517.695,132.174 C517.695,132.174 532.456,69.723 552.975,46.914 C552.975,46.914 521.806,22.413 520.635,1.344 L554.445,1.344 C554.445,1.344 563.526,29.263 587.520,40.299 L587.520,0.609 L622.800,0.609 L622.800,40.299 C622.800,40.299 641.945,33.531 654.405,1.344 L689.685,1.344 C689.685,1.344 677.902,33.091 658.080,45.444 C658.080,45.444 686.531,99.677 692.625,132.174 L651.465,132.174 ZM443.460,30.744 C443.460,30.744 423.457,37.622 414.060,132.909 L376.575,132.909 L375.840,132.909 L375.840,132.174 C375.840,132.174 386.027,49.418 427.290,0.609 L457.425,0.609 C457.425,0.609 507.346,68.247 509.610,132.174 L469.920,132.174 C469.920,132.174 463.869,41.758 443.460,30.744 ZM312.630,132.174 C286.630,132.633 270.735,116.739 270.735,116.739 C245.085,92.492 253.095,51.324 253.095,51.324 C259.006,1.580 308.955,0.609 308.955,0.609 C328.532,-0.422 339.090,7.224 339.090,7.224 C368.143,20.000 370.695,54.999 370.695,54.999 C375.970,77.949 361.875,104.979 361.875,104.979 C348.542,132.841 312.630,132.174 312.630,132.174 ZM311.160,30.744 C311.160,30.744 284.121,28.435 283.965,65.289 C283.965,65.289 281.995,102.631 311.160,102.774 C311.160,102.774 339.790,105.449 339.090,65.289 C339.090,65.289 341.547,30.937 311.160,30.744 ZM207.525,60.879 L204.585,60.879 C194.322,68.591 186.945,110.124 186.945,110.124 L164.160,110.124 C158.568,73.620 145.785,60.879 145.785,60.879 L142.110,60.879 L142.110,132.174 L107.565,132.174 L107.565,1.344 L107.565,0.609 L142.110,0.609 C150.441,0.804 174.450,53.529 174.450,53.529 C176.205,55.208 177.390,53.529 177.390,53.529 C180.964,30.478 208.260,0.609 208.260,0.609 L243.540,0.609 L243.540,132.174 L207.525,132.174 L207.525,60.879 ZM31.125,124.824 C-21.102,90.765 9.810,30.009 9.810,30.009 C38.476,-14.010 94.335,4.284 94.335,4.284 L94.335,31.479 C35.931,16.880 38.475,69.699 38.475,69.699 C37.858,114.667 94.335,101.304 94.335,101.304 L94.335,128.499 C54.671,138.718 31.125,124.824 31.125,124.824 Z"/>
</svg>