<svg width="415.744" height="415.744" xmlns="http://www.w3.org/2000/svg">

 <g>
  <title>background</title>
  <rect fill="none" id="canvas_background" height="417.744" width="417.744" y="-1" x="-1"/>
 </g>
 <g>
  <title>Layer 1</title>
  <g id="svg_1">
   <g id="svg_2">
    <path fill="#fcc400" id="svg_3" d="m207.871994,0c-53.759995,0 -97.279991,43.52 -97.279991,97.279999s43.519997,97.279999 97.279991,97.279999s97.279984,-43.520004 97.279984,-97.279999s-43.519989,-97.279999 -97.279984,-97.279999z"/>
   </g>
  </g>
  <g id="svg_4">
   <g id="svg_5">
    <path fill="#fcc400" id="svg_6" d="m245.759995,205.824005l-75.776001,0c-76.288002,0 -138.240004,61.951996 -138.240004,138.23999l0,56.320007c0,8.70401 6.656,15.360016 15.359999,15.360016l321.536026,0c8.70401,0 15.359985,-6.656006 15.359985,-15.360016l0,-56.320007c0,-76.287994 -61.951996,-138.23999 -138.240005,-138.23999z"/>
   </g>
  </g>
  <g id="svg_7"/>
  <g id="svg_8"/>
  <g id="svg_9"/>
  <g id="svg_10"/>
  <g id="svg_11"/>
  <g id="svg_12"/>
  <g id="svg_13"/>
  <g id="svg_14"/>
  <g id="svg_15"/>
  <g id="svg_16"/>
  <g id="svg_17"/>
  <g id="svg_18"/>
  <g id="svg_19"/>
  <g id="svg_20"/>
  <g id="svg_21"/>
 </g>
</svg>